<?xml version="1.0" encoding="utf-8"?>
<!-- Generator: Adobe Illustrator 16.0.0, SVG Export Plug-In . SVG Version: 6.00 Build 0)  -->
<!DOCTYPE svg PUBLIC "-//W3C//DTD SVG 1.1//EN" "http://www.w3.org/Graphics/SVG/1.1/DTD/svg11.dtd">
<svg version="1.1" id="Слой_1" xmlns="http://www.w3.org/2000/svg" xmlns:xlink="http://www.w3.org/1999/xlink" x="0px" y="0px"
	 width="500px" height="500px" viewBox="0 0 500 500" enable-background="new 0 0 500 500" xml:space="preserve">
<g>
	<g>
		<polyline fill="none" stroke="#727373" stroke-linecap="round" stroke-linejoin="round" points="0.03,0.319 0.53,0.03 
			0.03,18.794 32.533,0.028 0.03,37.269 64.537,0.026 0.03,55.744 96.54,0.024 0.03,74.22 128.544,0.022 0.03,92.695 160.546,0.021 
			0.03,111.17 192.55,0.019 0.03,129.646 224.553,0.017 0.03,148.121 256.557,0.015 0.03,166.596 288.561,0.013 0.03,185.071 
			320.563,0.011 0.03,203.546 352.566,0.009 0.03,222.021 384.569,0.007 0.03,240.497 416.573,0.005 0.03,258.972 448.576,0.003 
			0.03,277.447 480.58,0.001 0.03,295.922 499.971,7.281 0.03,314.397 499.972,25.756 0.03,332.873 499.973,44.23 0.03,351.348 
			499.974,62.705 0.03,369.823 499.975,81.18 0.03,388.298 499.976,99.654 0.03,406.773 499.978,118.129 0.03,425.249 
			499.979,136.604 0.03,443.725 499.979,155.079 0.03,462.199 499.98,173.553 0.03,480.675 499.981,192.027 0.03,499.149 
			499.982,210.502 30.561,499.998 499.983,228.977 62.564,499.996 499.984,247.451 94.567,499.994 499.986,265.926 126.571,499.992 
			499.987,284.4 158.574,499.99 499.988,302.875 190.577,499.988 499.989,321.35 222.581,499.986 499.99,339.824 254.584,499.984 
			499.991,358.299 286.587,499.983 499.992,376.773 318.591,499.981 499.994,395.248 350.594,499.979 499.995,413.723 
			382.597,499.978 499.996,432.197 414.601,499.976 499.997,450.672 446.604,499.974 499.998,469.146 478.607,499.972 
			499.999,487.621 		"/>
		<g>
			<polyline fill="none" stroke="#000000" stroke-linecap="round" stroke-linejoin="round" points="1.074,0.47 2.65,-0.44 
				33.078,0.468 34.657,-0.444 65.081,0.466 66.664,-0.448 97.084,0.464 98.67,-0.452 129.087,0.462 130.677,-0.456 161.091,0.46 
				162.684,-0.459 193.094,0.458 194.69,-0.463 225.097,0.457 226.697,-0.467 257.101,0.455 258.704,-0.471 289.104,0.453 
				290.71,-0.475 321.107,0.451 322.717,-0.479 353.11,0.449 354.724,-0.482 385.114,0.447 386.73,-0.486 417.117,0.444 
				418.736,-0.49 449.12,0.443 450.743,-0.494 481.124,0.441 482.75,-0.498 499.501,8.306 500.44,7.764 499.503,26.78 
				500.442,26.238 499.506,45.254 500.444,44.712 499.508,63.728 500.447,63.186 499.51,82.202 500.449,81.66 499.513,100.676 
				500.451,100.134 499.515,119.15 500.453,118.608 499.517,137.624 500.456,137.082 499.519,156.098 500.458,155.556 
				499.521,174.572 500.46,174.03 499.522,193.045 500.463,192.503 499.524,211.52 500.465,210.977 499.527,229.993 
				500.467,229.451 499.529,248.467 500.469,247.925 499.531,266.941 500.471,266.399 499.534,285.415 500.473,284.873 
				499.536,303.889 500.475,303.348 499.538,322.363 500.478,321.82 499.541,340.837 500.479,340.295 499.543,359.311 
				500.481,358.769 499.545,377.785 500.483,377.243 499.548,396.259 500.486,395.717 499.55,414.732 500.488,414.19 
				499.552,433.207 500.49,432.665 499.555,451.681 500.493,451.139 499.557,470.154 500.495,469.612 499.559,488.629 
				500.497,488.087 			"/>
			<polyline fill="none" stroke="#000000" stroke-linecap="round" stroke-linejoin="round" points="-0.44,-0.151 0.06,-0.44 
				-0.44,18.324 0.442,17.814 -0.44,36.799 0.444,36.289 -0.44,55.274 0.446,54.763 -0.44,73.75 0.449,73.236 -0.44,92.225 
				0.451,91.71 -0.44,110.7 0.453,110.184 -0.44,129.175 0.456,128.658 -0.44,147.65 0.458,147.132 -0.44,166.125 0.46,165.606 
				-0.44,184.601 0.462,184.08 -0.44,203.076 0.464,202.554 -0.44,221.551 0.466,221.028 -0.44,240.026 0.469,239.501 
				-0.44,258.502 0.471,257.976 -0.44,276.977 0.473,276.449 -0.44,295.452 0.476,294.924 -0.44,313.928 0.478,313.397 
				-0.44,332.402 0.48,331.871 -0.44,350.878 0.482,350.345 -0.44,369.354 0.484,368.819 -0.44,387.828 0.487,387.293 
				-0.44,406.304 0.489,405.767 -0.44,424.779 0.491,424.241 -0.44,443.254 0.493,442.715 -0.44,461.729 0.495,461.188 
				-0.44,480.204 0.498,479.663 -0.44,498.68 0.5,498.137 28.414,500.496 30.038,499.559 60.42,500.492 62.041,499.557 
				92.427,500.488 94.044,499.555 124.434,500.484 126.048,499.553 156.44,500.48 158.051,499.551 188.446,500.477 190.054,499.549 
				220.453,500.473 222.058,499.547 252.46,500.47 254.062,499.545 284.467,500.465 286.064,499.543 316.473,500.462 
				318.067,499.541 348.479,500.458 350.071,499.539 380.486,500.454 382.074,499.537 412.493,500.45 414.078,499.535 
				444.499,500.446 446.081,499.533 476.506,500.442 478.085,499.531 			"/>
		</g>
	</g>
</g>
</svg>
